<?xml version="1.0" encoding="iso-8859-1"?>
<!-- Generator: Adobe Illustrator 19.0.0, SVG Export Plug-In . SVG Version: 6.00 Build 0)  -->
<svg version="1.1" id="Layer_1" xmlns="http://www.w3.org/2000/svg" xmlns:xlink="http://www.w3.org/1999/xlink" x="0px" y="0px"
	 viewBox="0 0 512 512" style="enable-background:new 0 0 512 512;" xml:space="preserve">
<g>
	<path style="fill:#353185;" d="M305.816,95.218h-99.632c-9.171,0-16.605,7.435-16.605,16.605s7.435,16.605,16.605,16.605h99.632
		c9.171,0,16.605-7.435,16.605-16.605S314.987,95.218,305.816,95.218z"/>
	<path style="fill:#353185;" d="M123.339,8.303c0,12.826-10.435,23.261-23.261,23.261H77.802c-4.585,0-8.303,3.716-8.303,8.303
		s3.717,8.303,8.303,8.303h22.276c21.982,0,39.866-17.883,39.866-39.866H123.339z"/>
	<path style="fill:#353185;" d="M434.197,31.564h-22.275c-12.826,0-23.261-10.435-23.261-23.261h-16.605
		c0,21.982,17.883,39.866,39.866,39.866h22.275c4.586,0,8.303-3.716,8.303-8.303S438.783,31.564,434.197,31.564z"/>
</g>
<path style="fill:#0E0A57;" d="M307.439,48.169H204.56c-19.136,0-35.167-13.551-38.996-31.564H77.802
	c-4.585,0-8.303-3.716-8.303-8.303S73.217,0,77.802,0h95.195c4.585,0,8.303,3.716,8.303,8.303c0,12.826,10.435,23.261,23.261,23.261
	H307.44c12.826,0,23.261-10.435,23.261-23.261c0-4.586,3.716-8.303,8.303-8.303h95.194c4.586,0,8.303,3.716,8.303,8.303
	s-3.716,8.303-8.303,8.303h-87.761C342.606,34.618,326.575,48.169,307.439,48.169z"/>
<path style="fill:#353185;" d="M255.999,20.493c-4.585,0-8.303,3.716-8.303,8.303v77.492h16.605V28.796
	C264.302,24.21,260.586,20.493,255.999,20.493z"/>
<rect x="239.394" y="95.215" style="fill:#E42105;" width="33.211" height="63.776"/>
<path style="fill:#353185;" d="M255.999,189.351c-9.171,0-16.605,7.435-16.605,16.605v289.438c0,9.171,7.435,16.605,16.605,16.605
	s16.605-7.435,16.605-16.605V205.957C272.605,196.785,265.171,189.351,255.999,189.351z"/>
<path id="SVGCleanerId_0" style="fill:#0E0A57;" d="M350.097,342.372h-35.978l-5.535,8.303l5.535,8.303h35.978
	c4.586,0,8.303-3.716,8.303-8.303S354.683,342.372,350.097,342.372z"/>
<g>
	<path id="SVGCleanerId_0_1_" style="fill:#0E0A57;" d="M350.097,342.372h-35.978l-5.535,8.303l5.535,8.303h35.978
		c4.586,0,8.303-3.716,8.303-8.303S354.683,342.372,350.097,342.372z"/>
</g>
<path style="fill:#0E0A57;" d="M161.902,342.372h35.978l5.535,8.303l-5.535,8.303h-35.978c-4.586,0-8.303-3.716-8.303-8.303
	S157.317,342.372,161.902,342.372z"/>
<path style="fill:#E42105;" d="M255.999,147.838c-32.047,0-58.119,26.073-58.119,58.119v153.022h8.303
	c4.585,0,8.303-3.716,8.303-8.303V205.957c0-22.891,18.622-41.514,41.514-41.514s41.514,18.622,41.514,41.514v144.719
	c0,4.586,3.716,8.303,8.303,8.303h8.303V205.957C314.118,173.911,288.047,147.838,255.999,147.838z"/>
<g>
</g>
<g>
</g>
<g>
</g>
<g>
</g>
<g>
</g>
<g>
</g>
<g>
</g>
<g>
</g>
<g>
</g>
<g>
</g>
<g>
</g>
<g>
</g>
<g>
</g>
<g>
</g>
<g>
</g>
</svg>
