<?xml version="1.0" encoding="iso-8859-1"?>
<!-- Generator: Adobe Illustrator 19.0.0, SVG Export Plug-In . SVG Version: 6.00 Build 0)  -->
<svg version="1.1" id="Layer_1" xmlns="http://www.w3.org/2000/svg" xmlns:xlink="http://www.w3.org/1999/xlink" x="0px" y="0px"
	 viewBox="0 0 512 512" style="enable-background:new 0 0 512 512;" xml:space="preserve">
<g>
	<rect x="373.006" y="424.168" style="fill:#0E0A57;" width="69.478" height="78.262"/>
	<rect x="69.51" y="424.168" style="fill:#0E0A57;" width="69.478" height="78.262"/>
</g>
<path style="fill:#3D51CC;" d="M453.319,312.871L256,280.374L58.681,312.871v33.991l57.985,27.08l-57.985,27.08v33.981
	c0,5.958,4.874,10.832,10.832,10.832h372.973c5.958,0,10.832-4.874,10.832-10.832v-33.981l-57.985-27.08l57.985-27.08V312.871z"/>
<g>
	<path style="fill:#353185;" d="M453.319,58.314v37.913L256,139.556L58.681,96.227V58.314c0-26.81,21.935-48.745,48.745-48.745
		h297.148C431.384,9.57,453.319,31.505,453.319,58.314z"/>
	<path style="fill:#353185;" d="M22.206,112.475C9.961,112.475,0,122.437,0,134.681v65.947c0,12.245,9.961,22.206,22.206,22.206
		h3.975c4.488,0,8.124-3.637,8.124-8.124c0-4.487,0-85.987,0-85.987h67.704v-16.248C102.01,112.475,22.206,112.475,22.206,112.475z"
		/>
	<path style="fill:#353185;" d="M489.794,112.475c12.245,0,22.206,9.961,22.206,22.206v65.947c0,12.245-9.961,22.206-22.206,22.206
		h-3.975c-4.488,0-8.124-3.637-8.124-8.124c0-4.487,0-85.987,0-85.987H409.99v-16.248
		C409.99,112.475,489.794,112.475,489.794,112.475z"/>
</g>
<rect x="58.678" y="96.224" style="fill:#5BACF5;" width="394.638" height="216.643"/>
<path style="fill:#0E0A57;" d="M308.677,346.862c4.485,0,8.124,3.629,8.124,8.124c0,4.485-3.64,8.124-8.124,8.124H203.323
	c-4.485,0-8.124-3.64-8.124-8.124c0-4.495,3.64-8.124,8.124-8.124H308.677z"/>
<rect x="264.121" y="112.472" style="fill:#B8DDFF;" width="172.946" height="184.147"/>
<rect x="74.926" y="112.472" style="fill:#FFFFFF;" width="172.946" height="184.147"/>
<g>
	<path style="fill:#FF7039;" d="M170.827,346.862v27.08c0,14.948-12.121,27.08-27.08,27.08H58.681v-54.161H170.827z"/>
	<path style="fill:#FF7039;" d="M453.319,346.862v54.161h-85.065c-14.959,0-27.08-12.132-27.08-27.08v-27.08H453.319z"/>
</g>
<path style="fill:#FFD117;" d="M401.869,61.023H110.131c-4.488,0-8.124-3.637-8.124-8.124s3.636-8.124,8.124-8.124h291.739
	c4.488,0,8.124,3.637,8.124,8.124S406.357,61.023,401.869,61.023z"/>
<g>
</g>
<g>
</g>
<g>
</g>
<g>
</g>
<g>
</g>
<g>
</g>
<g>
</g>
<g>
</g>
<g>
</g>
<g>
</g>
<g>
</g>
<g>
</g>
<g>
</g>
<g>
</g>
<g>
</g>
</svg>
