<?xml version="1.0" encoding="iso-8859-1"?>
<!-- Generator: Adobe Illustrator 19.0.0, SVG Export Plug-In . SVG Version: 6.00 Build 0)  -->
<svg version="1.1" id="Layer_1" xmlns="http://www.w3.org/2000/svg" xmlns:xlink="http://www.w3.org/1999/xlink" x="0px" y="0px"
	 viewBox="0 0 279.887 279.887" style="enable-background:new 0 0 279.887 279.887;" xml:space="preserve">
<g>
	<path style="fill:#2D4552;" d="M17.467,227.268l0.21,26.165h60.888l0.193-26.165C78.758,227.329,17.545,227.251,17.467,227.268z
		 M262.421,227.268l-61.308,0.271l0.201,25.894h61.151L262.421,227.268z"/>
	<path style="fill:#202D35;" d="M25.999,253.432h9.066v-26.165h-9.066C25.999,227.268,25.999,253.432,25.999,253.432z
		 M43.483,253.432h9.066v-26.165h-9.066V253.432z M61.186,253.432h8.558v-26.165h-8.558
		C61.186,227.268,61.186,253.432,61.186,253.432z M245.111,227.539v25.894h8.786v-25.894H245.111z M227.627,253.432h8.523v-25.893
		h-8.523V253.432z M209.88,253.704h8.821v-26.165h-8.821V253.704z"/>
	<path style="fill:#BF392C;" d="M245.024,34.88c0-5.102-3.492-8.698-8.795-8.698H43.938c-5.312,0-8.803,3.597-8.803,8.698v70.059
		h209.872C245.006,104.939,245.024,34.88,245.024,34.88z M8.952,131.227v78.583h262.254v-78.583H8.952z"/>
	<path style="fill:#FFFFFF;" d="M227.636,43.386l-0.053,61.641l-175.06-0.018l-0.21-61.641
		C52.313,43.368,227.636,43.386,227.636,43.386z"/>
	<path style="fill:#F0F0F0;" d="M52.593,43.386h87.491v61.659H52.593C52.593,105.044,52.593,43.386,52.593,43.386z"/>
	<path style="fill:#E2574C;" d="M244.674,105.018H35.213L9.442,131.167l261.607,0.061L244.674,105.018z"/>
	<path style="fill:#CCD0D2;" d="M0,209.801h279.887v17.458H0V209.801z"/>
	<path style="fill:#FFFFFF;" d="M26.218,192.352l52.523,0.245l0.201-44.227l-52.785,0.035
		C26.156,148.406,26.218,192.352,26.218,192.352z M253.854,148.667l-52.794-0.254l0.07,43.938l52.785,0.245
		C253.915,192.598,253.854,148.667,253.854,148.667z"/>
	<path style="fill:#F4B459;" d="M35.021,183.548h34.863v-26.209H35.021V183.548z M244.77,157.401l-34.671,0.018l0.07,25.946
		l34.671,0.254C244.84,183.618,244.77,157.401,244.77,157.401z"/>
	<path style="fill:#E4E7E7;" d="M95.962,192.369h87.885v-17.738H95.962C95.962,174.632,95.962,192.369,95.962,192.369z
		 M95.962,148.406v17.755h87.885v-17.755H95.962z"/>
</g>
<g>
</g>
<g>
</g>
<g>
</g>
<g>
</g>
<g>
</g>
<g>
</g>
<g>
</g>
<g>
</g>
<g>
</g>
<g>
</g>
<g>
</g>
<g>
</g>
<g>
</g>
<g>
</g>
<g>
</g>
</svg>
