<?xml version="1.0" encoding="iso-8859-1"?>
<!-- Generator: Adobe Illustrator 19.0.0, SVG Export Plug-In . SVG Version: 6.00 Build 0)  -->
<svg version="1.1" id="Layer_1" xmlns="http://www.w3.org/2000/svg" xmlns:xlink="http://www.w3.org/1999/xlink" x="0px" y="0px"
	 viewBox="0 0 512 512" style="enable-background:new 0 0 512 512;" xml:space="preserve">
<polygon style="fill:#5BACF5;" points="79.967,32.681 79.967,194.515 277.786,194.515 255.998,21.787 "/>
<polygon style="fill:#4C7FE1;" points="432.029,32.681 255.998,21.787 255.998,194.515 432.029,194.515 "/>
<g>
	<path style="fill:#B8DDFF;" d="M175.305,107.212c-5.849-5.263-13.532-7.691-21.626-6.838l-49.142,5.184
		c-0.012,0.001-49.196,5.19-49.196,5.19c-15.98,1.685-28.981,16.129-28.981,32.198v51.569H42.7v-51.569
		c0-7.825,6.573-15.127,14.355-15.947l40.142-4.234v71.751h16.34v-73.474l41.858-4.416c3.422-0.363,6.618,0.608,8.979,2.733
		c2.361,2.123,3.66,5.194,3.66,8.643v66.515h16.34V128C184.374,119.859,181.153,112.476,175.305,107.212z"/>
	<path style="fill:#B8DDFF;" d="M456.657,110.748l-49.186-5.189c-0.01-0.001-49.154-5.185-49.154-5.185
		c-8.099-0.851-15.777,1.575-21.626,6.838c-5.848,5.264-9.069,12.646-9.069,20.788v66.515h16.34V128c0-3.449,1.3-6.519,3.66-8.643
		c2.358-2.124,5.542-3.097,8.979-2.733l41.858,4.415v73.475h16.34v-71.751l40.143,4.234c7.78,0.82,14.353,8.122,14.353,15.947
		v51.569h16.34v-51.568C485.637,126.877,472.635,112.433,456.657,110.748z"/>
</g>
<polygon style="fill:#3D51CC;" points="255.998,168.371 8.169,194.515 13.945,259.267 266.892,259.267 "/>
<polygon style="fill:#FF7039;" points="13.945,259.267 30.203,441.512 266.892,441.512 255.998,233.732 "/>
<polygon style="fill:#353185;" points="503.828,194.515 255.998,168.371 255.998,233.732 377.025,269.055 498.052,259.267 "/>
<polygon style="fill:#E42105;" points="255.998,233.732 255.998,441.512 481.795,441.512 498.052,259.267 "/>
<path style="fill:#5BACF5;" d="M503.828,430.523c-16.955,0-31.964-8.278-41.316-20.934c-9.316,12.656-24.361,20.934-41.28,20.934
	c-16.955,0-31.965-8.278-41.316-20.934c-9.352,12.656-24.363,20.934-41.316,20.934c-16.959,0-31.925-8.278-41.28-20.934
	c-9.352,12.656-24.362,20.934-41.316,20.934c-16.959,0-31.965-8.278-41.281-20.934c-9.391,12.656-24.361,20.934-41.316,20.934
	c-16.958,0-31.964-8.278-41.28-20.934c-9.352,12.656-24.402,20.934-41.357,20.934c-16.919,0-31.924-8.278-41.28-20.934
	c-9.352,12.656-24.357,20.934-41.316,20.934v49.021l247.827,16.115l247.83-16.115V430.523z"/>
<path style="fill:#4C7FE1;" d="M462.512,458.61c-9.316,12.656-24.361,20.934-41.28,20.934c-16.955,0-31.965-8.278-41.316-20.934
	c-9.352,12.656-24.363,20.934-41.316,20.934c-16.959,0-31.925-8.278-41.28-20.934c-9.353,12.656-24.362,20.934-41.316,20.934
	c-16.959,0-31.965-8.278-41.281-20.934c-9.391,12.656-24.361,20.934-41.316,20.934c-16.958,0-31.964-8.278-41.28-20.934
	c-9.352,12.656-24.402,20.934-41.357,20.934c-16.919,0-31.924-8.278-41.28-20.934c-9.352,12.656-24.357,20.934-41.316,20.934V512
	h495.66v-32.455C486.873,479.545,471.864,471.268,462.512,458.61z"/>
<path style="fill:#FF7039;" d="M399.349,0h-286.7C94.674,0,79.967,14.706,79.967,32.681h352.062C432.029,14.706,417.323,0,399.349,0
	z"/>
<g>
</g>
<g>
</g>
<g>
</g>
<g>
</g>
<g>
</g>
<g>
</g>
<g>
</g>
<g>
</g>
<g>
</g>
<g>
</g>
<g>
</g>
<g>
</g>
<g>
</g>
<g>
</g>
<g>
</g>
</svg>
