<?xml version="1.0" encoding="iso-8859-1"?>
<!-- Generator: Adobe Illustrator 19.0.0, SVG Export Plug-In . SVG Version: 6.00 Build 0)  -->
<svg version="1.1" id="Layer_1" xmlns="http://www.w3.org/2000/svg" xmlns:xlink="http://www.w3.org/1999/xlink" x="0px" y="0px"
	 viewBox="0 0 512.002 512.002" style="enable-background:new 0 0 512.002 512.002;" xml:space="preserve">
<g>
	<rect x="107.496" y="460.932" style="fill:#E42105;" width="297.012" height="16.563"/>
	<rect x="74.37" y="495.439" style="fill:#E42105;" width="363.265" height="16.563"/>
</g>
<g>
	<path style="fill:#961300;" d="M155.393,410.983l-86.877,86.879c-3.234,3.235-3.234,8.478,0,11.712
		c1.617,1.617,3.737,2.425,5.856,2.425s4.239-0.808,5.856-2.425l86.877-86.879L155.393,410.983z"/>
	<path style="fill:#961300;" d="M443.485,497.862l-86.878-86.878l-11.711,11.712l86.878,86.879c1.617,1.617,3.737,2.425,5.856,2.425
		s4.239-0.808,5.856-2.425C446.721,506.34,446.721,501.097,443.485,497.862z"/>
</g>
<path style="fill:#5BACF5;" d="M256.001,259.592c68.43,0,129.93-29.648,172.373-76.791l3.108-61.498
	C434.915,54.587,383.066,0,316.261,0H195.93C129.125,0,77.185,54.591,80.509,121.313l3.119,61.488
	C126.072,229.945,187.571,259.592,256.001,259.592z"/>
<path style="fill:#B8DDFF;" d="M256.001,259.592c-68.429,0-129.929-29.648-172.372-76.79l10.055,198.227
	c1.577,30.325,27.712,55.136,58.078,55.136H360.43c30.366,0,56.433-24.815,57.927-55.143l10.017-198.221
	C385.929,229.944,324.431,259.592,256.001,259.592z"/>
<path style="fill:#5BACF5;" d="M349.879,371.357c1.837-35.692-25.902-64.895-61.641-64.895h-64.375
	c-35.739,0-63.525,29.205-61.748,64.9l93.885,22.084C256.001,393.447,349.879,371.363,349.879,371.357z"/>
<polygon style="fill:#4C7FE1;" points="162.116,371.363 165.403,436.166 346.604,436.166 349.879,371.363 "/>
<path style="fill:#353185;" d="M124.62,119.076l1.728,34.062h259.301l1.724-34.104c0.381-7.395-0.314-14.62-2.004-21.505
	l-258.693,0.006C124.962,104.436,124.251,111.673,124.62,119.076z"/>
<g>
	<circle style="fill:#FFD117;" cx="211.833" cy="202.822" r="16.563"/>
	<circle style="fill:#FFD117;" cx="300.17" cy="202.822" r="16.563"/>
</g>
<g>
</g>
<g>
</g>
<g>
</g>
<g>
</g>
<g>
</g>
<g>
</g>
<g>
</g>
<g>
</g>
<g>
</g>
<g>
</g>
<g>
</g>
<g>
</g>
<g>
</g>
<g>
</g>
<g>
</g>
</svg>
